<svg xmlns="http://www.w3.org/2000/svg" viewBox="0 0 250 34"><defs><style>.cls-1{fill:#fff;}.cls-2{fill:#489fb5;}</style></defs><g id="Logo_Blanco" data-name="Logo Blanco"><g id="Blanco"><path class="cls-1" d="M33.46,9.66a7.43,7.43,0,0,1,3.4.75,5.39,5.39,0,0,1,2.33,2.3,8.26,8.26,0,0,1,.84,4v9.18H36.28v-8.7A4.68,4.68,0,0,0,35.35,14a3.38,3.38,0,0,0-2.67-1.05,4.32,4.32,0,0,0-2.18.54A3.66,3.66,0,0,0,29,15.06a6,6,0,0,0-.52,2.67v8.13H24.76v-8.7A4.68,4.68,0,0,0,23.83,14a3.38,3.38,0,0,0-2.67-1.05,4.32,4.32,0,0,0-2.18.54,3.66,3.66,0,0,0-1.47,1.59A6,6,0,0,0,17,17.73v8.13H13.24v-16h3.57V14.1l-.63-1.26a5.44,5.44,0,0,1,2.35-2.37,7.5,7.5,0,0,1,3.53-.81A6.88,6.88,0,0,1,26,10.77a5.35,5.35,0,0,1,2.21,3.36l-1.47-.51a6.18,6.18,0,0,1,2.58-2.88A8,8,0,0,1,33.46,9.66Z"/><path class="cls-1" d="M48.7,13V10H59.38v3Zm8.16,13.11a5.7,5.7,0,0,1-4.08-1.36,5.3,5.3,0,0,1-1.44-4V6.3h3.75V20.58a2.5,2.5,0,0,0,.58,1.77,2.13,2.13,0,0,0,1.64.63,3.29,3.29,0,0,0,2.1-.66L60.46,25a4.41,4.41,0,0,1-1.62.81A7.28,7.28,0,0,1,56.86,26.07Z"/><path class="cls-2" d="M71.44,7.2a2.38,2.38,0,0,1-1.73-.66A2.14,2.14,0,0,1,69,5a2.11,2.11,0,0,1,.67-1.6,2.41,2.41,0,0,1,1.73-.65,2.45,2.45,0,0,1,1.72.62,2,2,0,0,1,.68,1.54,2.28,2.28,0,0,1-2.4,2.34Z"/><rect class="cls-1" x="69.55" y="9.84" width="3.75" height="16.02"/><path class="cls-1" d="M93.31,9.66a7.65,7.65,0,0,1,3.43.75,5.57,5.57,0,0,1,2.39,2.3,8,8,0,0,1,.87,4v9.18H96.25v-8.7a4.45,4.45,0,0,0-1-3.18,3.69,3.69,0,0,0-2.8-1.05,4.9,4.9,0,0,0-2.34.54,3.72,3.72,0,0,0-1.58,1.61A5.76,5.76,0,0,0,88,17.76v8.1H84.22v-16h3.57v4.32l-.63-1.32a5.6,5.6,0,0,1,2.44-2.35A8,8,0,0,1,93.31,9.66Z"/><path class="cls-1" d="M117.58,25.14a8.68,8.68,0,0,1-4.13-1,7.4,7.4,0,0,1-2.91-2.72,7.66,7.66,0,0,1-1.06-4.08,7.6,7.6,0,0,1,1.06-4.05,7.29,7.29,0,0,1,2.91-2.7,8.79,8.79,0,0,1,4.13-1,8.07,8.07,0,0,1,3.66.81A6.1,6.1,0,0,1,123.83,13a8.77,8.77,0,0,1,1,4.38,8.85,8.85,0,0,1-1,4.4,6.17,6.17,0,0,1-2.59,2.55A8,8,0,0,1,117.58,25.14Zm.47,6.75a16.15,16.15,0,0,1-4.33-.58,9.39,9.39,0,0,1-3.47-1.7l1.69-2.82a7.91,7.91,0,0,0,2.65,1.4,10.43,10.43,0,0,0,3.26.52,5.3,5.3,0,0,0,3.86-1.21,4.93,4.93,0,0,0,1.23-3.65V21l.31-3.63-.13-3.63V9.84h3.57V23.43q0,4.35-2.22,6.41T118.05,31.89Zm.09-9.93a5.33,5.33,0,0,0,2.53-.58,4.33,4.33,0,0,0,1.72-1.62,4.9,4.9,0,0,0,0-4.77,4.13,4.13,0,0,0-1.72-1.59,5.57,5.57,0,0,0-2.53-.56,5.63,5.63,0,0,0-2.53.56A4.06,4.06,0,0,0,113.87,15a4.56,4.56,0,0,0-.61,2.38,4.59,4.59,0,0,0,.61,2.39,4.26,4.26,0,0,0,1.74,1.62A5.39,5.39,0,0,0,118.14,22Z"/><path class="cls-1" d="M145,26.07A9.27,9.27,0,0,1,140.48,25a7.74,7.74,0,0,1-3.07-2.93,8.1,8.1,0,0,1-1.12-4.23,8.06,8.06,0,0,1,1.12-4.24,7.73,7.73,0,0,1,3.07-2.9A9.38,9.38,0,0,1,145,9.66a8.68,8.68,0,0,1,4.13.95,6.28,6.28,0,0,1,2.72,2.77l-2.89,1.68a4.53,4.53,0,0,0-1.75-1.68,4.74,4.74,0,0,0-2.23-.54,5.1,5.1,0,0,0-2.49.6,4.32,4.32,0,0,0-1.74,1.73,5.39,5.39,0,0,0-.63,2.68,5.43,5.43,0,0,0,.63,2.69,4.3,4.3,0,0,0,1.74,1.72,5,5,0,0,0,2.49.6,4.74,4.74,0,0,0,2.23-.54,4.46,4.46,0,0,0,1.75-1.68l2.89,1.68a6.51,6.51,0,0,1-2.72,2.78A8.46,8.46,0,0,1,145,26.07Z"/><path class="cls-2" d="M162.84,26.07a2.39,2.39,0,0,1-1.74-.7,2.44,2.44,0,0,1-.72-1.79,2.39,2.39,0,0,1,.72-1.81,2.57,2.57,0,0,1,3.48,0,2.36,2.36,0,0,1,.72,1.81,2.43,2.43,0,0,1-2.46,2.49Z"/><path class="cls-1" d="M181.71,26a7.77,7.77,0,0,1-3.94-1A7.36,7.36,0,0,1,175,22.17,8.25,8.25,0,0,1,174,18a8.21,8.21,0,0,1,1-4.15,7.37,7.37,0,0,1,2.78-2.79,7.78,7.78,0,0,1,3.94-1,7.36,7.36,0,0,1,3.74,1,6.94,6.94,0,0,1,2.64,2.73,8.71,8.71,0,0,1,1,4.26,8.86,8.86,0,0,1-1,4.23A6.78,6.78,0,0,1,185.48,25,7.32,7.32,0,0,1,181.71,26Zm.09-1.35a6.33,6.33,0,0,0,3.23-.82,5.94,5.94,0,0,0,2.25-2.33A7,7,0,0,0,188.1,18a7,7,0,0,0-.82-3.46A6,6,0,0,0,185,12.26a6.68,6.68,0,0,0-6.45,0,6,6,0,0,0-2.25,2.31A7,7,0,0,0,175.5,18a7,7,0,0,0,.83,3.45,5.94,5.94,0,0,0,2.25,2.33A6.3,6.3,0,0,0,181.8,24.63Zm6.33,1.23V20.73L188.4,18l-.3-2.73V3.6h1.5V25.86Z"/><path class="cls-1" d="M208.29,26a8.38,8.38,0,0,1-4.18-1,7.36,7.36,0,0,1-2.85-2.82,8.07,8.07,0,0,1-1-4.11,8.45,8.45,0,0,1,1-4.12,7.25,7.25,0,0,1,2.68-2.81,7.35,7.35,0,0,1,3.84-1,7.46,7.46,0,0,1,3.83,1,7.08,7.08,0,0,1,2.67,2.78,8.45,8.45,0,0,1,1,4.12,1.41,1.41,0,0,1,0,.2,1.5,1.5,0,0,0,0,.22H201.33V17.22h13l-.6.57a6.49,6.49,0,0,0-.76-3.28,6,6,0,0,0-2.15-2.28,6,6,0,0,0-8.37,2.28,6.89,6.89,0,0,0-.78,3.31v.27a6.7,6.7,0,0,0,.86,3.41,6,6,0,0,0,2.35,2.31,7,7,0,0,0,3.42.82,7.29,7.29,0,0,0,2.81-.54,5.5,5.5,0,0,0,2.2-1.65l.87,1a6.42,6.42,0,0,1-2.56,1.91A8.62,8.62,0,0,1,208.29,26Z"/><path class="cls-1" d="M229.5,25.86,222.45,10.2H224L230.64,25h-.72l6.66-14.82h1.53L231,25.86Z"/></g></g></svg>