<svg xmlns="http://www.w3.org/2000/svg" viewBox="0 0 250 34"><defs><style>.cls-1{fill:#171717;}.cls-2{fill:#489fb5;}</style></defs><g id="Logo_Negro" data-name="Logo Negro"><g id="Negro"><path class="cls-1" d="M32.78,9.36a7.6,7.6,0,0,1,3.41.75,5.42,5.42,0,0,1,2.32,2.3,8.29,8.29,0,0,1,.84,4v9.18H35.6v-8.7a4.67,4.67,0,0,0-.93-3.17A3.35,3.35,0,0,0,32,12.63a4.29,4.29,0,0,0-2.17.54,3.69,3.69,0,0,0-1.47,1.6,5.93,5.93,0,0,0-.53,2.67v8.12H24.08v-8.7a4.67,4.67,0,0,0-.93-3.17,3.35,3.35,0,0,0-2.67-1.06,4.29,4.29,0,0,0-2.17.54,3.69,3.69,0,0,0-1.47,1.6,5.93,5.93,0,0,0-.53,2.67v8.12H12.56v-16h3.57v4.27l-.63-1.27a5.51,5.51,0,0,1,2.36-2.37,7.46,7.46,0,0,1,3.52-.81,6.91,6.91,0,0,1,3.92,1.12,5.32,5.32,0,0,1,2.2,3.35L26,13.32a6.23,6.23,0,0,1,2.58-2.88A8,8,0,0,1,32.78,9.36Z"/><path class="cls-1" d="M48,12.67v-3H58.7v3Zm8.16,13.1a5.7,5.7,0,0,1-4.08-1.36,5.29,5.29,0,0,1-1.44-4V6h3.75V20.29A2.51,2.51,0,0,0,55,22.06a2.11,2.11,0,0,0,1.63.63,3.24,3.24,0,0,0,2.1-.67l1.05,2.67a4.42,4.42,0,0,1-1.62.82A7.27,7.27,0,0,1,56.18,25.77Z"/><path class="cls-2" d="M70.76,6.9A2.35,2.35,0,0,1,69,6.25a2.17,2.17,0,0,1-.68-1.6A2.14,2.14,0,0,1,69,3.05a2.39,2.39,0,0,1,1.72-.65A2.48,2.48,0,0,1,72.49,3a2,2,0,0,1,.67,1.54,2.28,2.28,0,0,1-.66,1.67A2.32,2.32,0,0,1,70.76,6.9Z"/><rect class="cls-1" x="68.87" y="9.54" width="3.75" height="16.02"/><path class="cls-1" d="M92.63,9.36a7.8,7.8,0,0,1,3.44.75,5.55,5.55,0,0,1,2.38,2.3,8,8,0,0,1,.87,4v9.18H95.57v-8.7a4.43,4.43,0,0,0-1-3.17,3.68,3.68,0,0,0-2.81-1.06,4.93,4.93,0,0,0-2.34.54,3.76,3.76,0,0,0-1.57,1.61,5.75,5.75,0,0,0-.56,2.68v8.1H83.54v-16h3.57v4.32l-.63-1.32a5.68,5.68,0,0,1,2.45-2.35A8,8,0,0,1,92.63,9.36Z"/><path class="cls-1" d="M116.9,24.85a8.65,8.65,0,0,1-4.12-1,7.34,7.34,0,0,1-2.91-2.72,7.61,7.61,0,0,1-1.07-4.08A7.65,7.65,0,0,1,109.87,13a7.36,7.36,0,0,1,2.91-2.7,8.87,8.87,0,0,1,4.12-1,8.07,8.07,0,0,1,3.66.81,6.24,6.24,0,0,1,2.6,2.52,8.77,8.77,0,0,1,1,4.38,8.85,8.85,0,0,1-1,4.4,6.25,6.25,0,0,1-2.6,2.55A8,8,0,0,1,116.9,24.85Zm.48,6.75a16.15,16.15,0,0,1-4.33-.59,9.31,9.31,0,0,1-3.47-1.7l1.68-2.81a8.18,8.18,0,0,0,2.65,1.39,10.48,10.48,0,0,0,3.26.52A5.33,5.33,0,0,0,121,27.2a4.9,4.9,0,0,0,1.23-3.64V20.71l.3-3.64-.12-3.63V9.54H126v13.6c0,2.89-.74,5-2.22,6.4S120.18,31.6,117.38,31.6Zm.09-9.93a5.32,5.32,0,0,0,2.52-.59,4.29,4.29,0,0,0,1.73-1.62,4.57,4.57,0,0,0,.61-2.39,4.56,4.56,0,0,0-.61-2.38A4.1,4.1,0,0,0,120,13.1a5.56,5.56,0,0,0-2.52-.56,5.63,5.63,0,0,0-2.53.56,4,4,0,0,0-1.74,1.59,4.56,4.56,0,0,0-.62,2.38,4.57,4.57,0,0,0,.62,2.39,4.2,4.2,0,0,0,1.74,1.62A5.39,5.39,0,0,0,117.47,21.67Z"/><path class="cls-1" d="M144.29,25.77a9.24,9.24,0,0,1-4.48-1.06,7.87,7.87,0,0,1-3.08-2.92,8.09,8.09,0,0,1-1.11-4.23,8.09,8.09,0,0,1,1.11-4.25,7.8,7.8,0,0,1,3.08-2.89,9.35,9.35,0,0,1,4.48-1.06,8.71,8.71,0,0,1,4.13,1,6.31,6.31,0,0,1,2.71,2.77l-2.88,1.69a4.55,4.55,0,0,0-1.75-1.69,4.9,4.9,0,0,0-2.24-.54,5.16,5.16,0,0,0-2.49.61A4.3,4.3,0,0,0,140,14.87a5.43,5.43,0,0,0-.63,2.69,5.39,5.39,0,0,0,.63,2.68A4.39,4.39,0,0,0,141.77,22a5.15,5.15,0,0,0,2.49.59A4.66,4.66,0,0,0,146.5,22a4.49,4.49,0,0,0,1.75-1.67L151.13,22a6.44,6.44,0,0,1-2.71,2.78A8.49,8.49,0,0,1,144.29,25.77Z"/><path class="cls-2" d="M162.17,25.77a2.43,2.43,0,0,1-2.46-2.48,2.37,2.37,0,0,1,.72-1.82,2.59,2.59,0,0,1,3.48,0,2.61,2.61,0,0,1,0,3.6A2.39,2.39,0,0,1,162.17,25.77Z"/><path class="cls-1" d="M181,25.69a7.82,7.82,0,0,1-3.95-1,7.38,7.38,0,0,1-2.77-2.8,8.26,8.26,0,0,1-1-4.15,8.24,8.24,0,0,1,1-4.15,7.35,7.35,0,0,1,2.77-2.79,7.81,7.81,0,0,1,3.95-1,7.22,7.22,0,0,1,3.73,1,6.87,6.87,0,0,1,2.64,2.73,8.7,8.7,0,0,1,1,4.25,8.9,8.9,0,0,1-1,4.24,6.8,6.8,0,0,1-2.63,2.76A7.38,7.38,0,0,1,181,25.69Zm.09-1.35a6.3,6.3,0,0,0,3.22-.83,5.91,5.91,0,0,0,2.25-2.32,7.06,7.06,0,0,0,.83-3.46,7,7,0,0,0-.83-3.46A6,6,0,0,0,184.35,12a6.68,6.68,0,0,0-6.45,0,6,6,0,0,0-2.25,2.31,7,7,0,0,0-.82,3.46,7.05,7.05,0,0,0,.82,3.46,5.91,5.91,0,0,0,2.25,2.32A6.34,6.34,0,0,0,181.13,24.34Zm6.33,1.22V20.44l.27-2.73-.3-2.73V3.31h1.5V25.56Z"/><path class="cls-1" d="M207.62,25.69a8.42,8.42,0,0,1-4.19-1,7.42,7.42,0,0,1-2.85-2.82,8.1,8.1,0,0,1-1-4.12,8.45,8.45,0,0,1,1-4.12,7.18,7.18,0,0,1,2.69-2.8,7.83,7.83,0,0,1,7.66,0,7.14,7.14,0,0,1,2.67,2.78,8.45,8.45,0,0,1,1,4.12,1.5,1.5,0,0,1,0,.2,1.69,1.69,0,0,0,0,.23H200.66V16.92h13l-.6.58a6.53,6.53,0,0,0-.77-3.29,6,6,0,0,0-2.14-2.28,6.26,6.26,0,0,0-6.23,0,5.81,5.81,0,0,0-2.14,2.28,6.91,6.91,0,0,0-.78,3.31v.28a6.68,6.68,0,0,0,.85,3.4,6,6,0,0,0,2.36,2.31,7,7,0,0,0,3.42.83,7.43,7.43,0,0,0,2.8-.54,5.53,5.53,0,0,0,2.21-1.65l.87,1A6.43,6.43,0,0,1,211,25,8.57,8.57,0,0,1,207.62,25.69Z"/><path class="cls-1" d="M228.83,25.56,221.78,9.9h1.59L230,24.73h-.72L235.91,9.9h1.53l-7.08,15.66Z"/></g></g></svg>